<svg xmlns="http://www.w3.org/2000/svg" viewBox="0 0 179.78 264.3"><defs><style>.a{fill:#231f20;}.b{fill:#fecd7a;}</style></defs><title>BAPE logo - Brandlogos.net</title><path class="a" d="M437,432.48c5.51-5.5,7.64-9.36,7.43-17.33,1.2,1.73,3.51,3.77,4.44,2.17,6.24-10.8,12.27-19.5,22.84-26.86,14.85-10.34,31.21-7,47.43-10.32,7.51-1.55,17.66,3.34,26.39,6.43,17.64,6.24,27.23,24.51,35.41,39.62,8.76,16.18,17.43,34,19.46,53.31-2.4-.67-4.55.75-4.55,2.48s1.66,2.55,4.55,2.47c-2.74.23-4.63,1.91-4.31,3.39,2.75,13-3.19,23.35.64,36.57.56,1.94-5,7.52-4.87,9.49.43,9.52,10.2,21.18,10.07,27.22-.62,29.38-29.73,46.59-53.43,66-2.36,1.93-.95,5.2-2.56,8.33.51-2.18-.87-4.73-2.38-4.44-10.18,1.93-8.16,14.86-17.11,12.9-9.33-2-20.67,4.6-27.55-6-1.74,1.2-3.15,2.54-2.48,4.95-9.28-3.25-15.4-14.15-24.7-13.71-1.75.08-5.21,2-7.24.9-13.75-7.61-18.72-23.15-32.42-31.76-6.79-4.26,3-8.21-.1-12.3a47.09,47.09,0,0,0-4.86-5c1.65-1.65,4.59-3.6,4.28-4.78-5.23-20.19-6.43-39.87-7.81-59.68-.65-9.32,5.16-19.07,3.08-29.52-.39-2-4.19-4-3.84-4.75,2.44-5.7,6-12.91-.67-17.61,12.47-5.55,6.24-15.86,10.22-27.12.71-2,2.95-3.38,4.63-5.07" transform="translate(-422.11 -379.85)"/><path class="b" d="M457.19,447.76c-1.26,1.24-1,4.75-.12,6.87,3.28,7.83,12.28,4.3,16.74,3.49,19-3.46,37.15.52,54.3-4.8s-1-18.2-10-22.2c-14.42-6.42-29,6.53-44.41-.36-2.89-1.29-.7,6.25-4.62,6.38-.81,0-1.64-1.36-2.47-2.19-3.4,4.05-5.44,8.85-9.48,12.81" transform="translate(-422.11 -379.85)"/><path class="b" d="M459.23,489.44a27.51,27.51,0,0,0,2.25,2.13c8.31-6.36-.89-11.91-4.71-17-3.35,3.91-5.56,7.92,2.46,14.88" transform="translate(-422.11 -379.85)"/><path class="b" d="M486.48,521.61c3.47-.58,9.35,1.49,8.92-2.38-.79-7.17-10.44-3.18-16.35-.11,1.73,3.08,4.41,3,7.43,2.49" transform="translate(-422.11 -379.85)"/><path class="b" d="M489.23,468.76c15.43-2.64,20.68,17.07,31.91,25.61-1.65,1.65-3.2,4.29-5,4.45-3.67.32-3-7-7.35-6.6-3.77.33-1.3,8.31-7.46,7.1,1.63,6.41-1.43,10.68-7.51,12-11.14,2.42-25.66.06-24.7-9.28.66-6.43-.7-15.91,4.95-22.56,4.36-5.14,10.43-9.91,15.17-10.72m7,22.44c2.87-.46,5.06-4.26,7.54-6.73-6.73-1.68-11.34,4.85-17.31,4.58-1.79-.08-3.17-2.17-2.49-4.58-2.48,0-5.45-.83-7.12.41s.72,1.75,1.66,2.62c7.44,6.94,12.14,4.58,17.73,3.71" transform="translate(-422.11 -379.85)"/></svg>